<svg width="60" height="60" viewBox="0 0 60 60" fill="none" xmlns="http://www.w3.org/2000/svg">
<ellipse opacity="0.1" cx="30" cy="58.1999" rx="30" ry="1.79999" fill="#2B2A7F"/>
<path fill-rule="evenodd" clip-rule="evenodd" d="M42.9731 9.81636C43.49 9.11279 44.4794 8.96144 45.1829 9.4783C45.8865 9.99517 46.0379 10.9845 45.521 11.6881L43.5957 14.3088C43.0789 15.0124 42.0895 15.1637 41.3859 14.6469C40.6823 14.13 40.531 13.1406 41.0479 12.4371L42.9731 9.81636ZM44.4725 10.4454C44.303 10.3209 44.0647 10.3573 43.9402 10.5268L42.0149 13.1475C41.8904 13.317 41.9269 13.5553 42.0964 13.6798C42.2658 13.8043 42.5042 13.7678 42.6286 13.5984L44.5539 10.9777C44.6784 10.8082 44.642 10.5699 44.4725 10.4454ZM14.4668 25.3444C14.4668 17.6593 20.6968 11.4293 28.3819 11.4293C36.0671 11.4293 42.2971 17.6593 42.2971 25.3444C42.2971 33.0294 36.0671 39.2594 28.3819 39.2594C20.6968 39.2594 14.4668 33.0294 14.4668 25.3444ZM28.3819 10.2293C20.0341 10.2293 13.2668 16.9966 13.2668 25.3444C13.2668 33.6922 20.0341 40.4594 28.3819 40.4594C31.1262 40.4594 33.6996 39.7281 35.918 38.4497L37.8799 40.4116C37.8239 41.2453 38.1145 42.098 38.7518 42.7354L44.8056 48.7891C45.9771 49.9607 47.8766 49.9607 49.0482 48.7891L50.3536 47.4838C51.5251 46.3122 51.5251 44.4127 50.3535 43.2412L44.2998 37.1874C43.6623 36.55 42.8093 36.2594 41.9754 36.3156L40.3008 34.641C42.3036 32.077 43.4971 28.85 43.4971 25.3444C43.4971 16.9966 36.7298 10.2293 28.3819 10.2293ZM40.6747 36.712L39.5225 35.5598C38.7552 36.3962 37.8949 37.1459 36.958 37.7926L38.2761 39.1107C38.4042 38.8898 38.5627 38.6818 38.7518 38.4928L40.0571 37.1874C40.2461 36.9985 40.454 36.84 40.6747 36.712ZM35.3193 23.5277C35.6157 23.3795 35.7358 23.0191 35.5876 22.7228C35.4394 22.4264 35.079 22.3062 34.7827 22.4544L30.075 24.8082C29.8718 24.9099 29.7434 25.1176 29.7434 25.3449C29.7434 25.5721 29.8718 25.7799 30.075 25.8815L34.7827 28.2353C35.079 28.3835 35.4394 28.2634 35.5876 27.967C35.7358 27.6706 35.6157 27.3102 35.3193 27.162L31.685 25.3449L35.3193 23.5277ZM21.1757 22.7228C21.0275 23.0191 21.1476 23.3795 21.444 23.5277L25.0783 25.3449L21.444 27.162C21.1476 27.3102 21.0275 27.6706 21.1757 27.967C21.3239 28.2634 21.6843 28.3835 21.9806 28.2353L26.6883 25.8815C26.8915 25.7799 27.0199 25.5721 27.0199 25.3449C27.0199 25.1176 26.8915 24.9099 26.6883 24.8082L21.9806 22.4544C21.6843 22.3062 21.3239 22.4264 21.1757 22.7228ZM18.3897 25.3442C18.3897 19.8257 22.8633 15.3521 28.3818 15.3521C33.9003 15.3521 38.3739 19.8257 38.3739 25.3442C38.3739 30.8627 33.9003 35.3362 28.3818 35.3362C22.8633 35.3362 18.3897 30.8627 18.3897 25.3442ZM28.3818 14.1522C22.2005 14.1522 17.1897 19.163 17.1897 25.3442C17.1897 31.5254 22.2005 36.5362 28.3818 36.5362C34.563 36.5362 39.5739 31.5254 39.5739 25.3442C39.5739 19.163 34.563 14.1522 28.3818 14.1522ZM49.6366 15.6276C49.3712 14.7959 48.4818 14.3368 47.6501 14.6022L44.5521 15.5908C43.7204 15.8562 43.2613 16.7456 43.5267 17.5773C43.7921 18.409 44.6815 18.868 45.5132 18.6026L48.6112 17.6141C49.4429 17.3487 49.902 16.4593 49.6366 15.6276ZM48.0149 15.7454C48.2153 15.6815 48.4295 15.7921 48.4934 15.9924C48.5573 16.1927 48.4468 16.407 48.2464 16.4709L45.1484 17.4594C44.9481 17.5234 44.7339 17.4128 44.6699 17.2125C44.606 17.0121 44.7166 16.7979 44.9169 16.734L48.0149 15.7454ZM9.17408 34.2738C8.33592 34.5181 7.85445 35.3955 8.09869 36.2337C8.34293 37.0718 9.22039 37.5533 10.0586 37.3091L13.1806 36.3993C14.0188 36.1551 14.5002 35.2776 14.256 34.4394C14.0117 33.6013 13.1343 33.1198 12.2961 33.3641L9.17408 34.2738ZM9.25077 35.898C9.19194 35.6961 9.30791 35.4847 9.5098 35.4259L12.6318 34.5161C12.8337 34.4573 13.0451 34.5733 13.1039 34.7752C13.1627 34.977 13.0468 35.1884 12.8449 35.2472L9.72284 36.157C9.52095 36.2158 9.3096 36.0998 9.25077 35.898ZM12.3481 42.5264C11.6578 41.9919 11.5316 40.999 12.0661 40.3088L14.0571 37.7377C14.5917 37.0474 15.5845 36.9212 16.2748 37.4557C16.9651 37.9902 17.0913 38.9831 16.5568 39.6734L14.5657 42.2445C14.0312 42.9347 13.0383 43.0609 12.3481 42.5264ZM13.0149 41.0435C12.8861 41.2098 12.9165 41.4489 13.0828 41.5777C13.2491 41.7064 13.4882 41.676 13.617 41.5097L15.608 38.9387C15.7367 38.7724 15.7063 38.5332 15.5401 38.4045C15.3738 38.2757 15.1347 38.3061 15.0059 38.4724L13.0149 41.0435Z" fill="#2B2A7F"/>
</svg>
